# xmcd CD database file generated by Grip 3.2.0
# 
# Track frame offsets:
#       150
#       16773
#       27710
#       40520
#       52568
#       62650
#       84645
#       104595
#       123325
#       134165
#       153838
#       168953
#       178958
#       195868
#       206840
#       217915
#       225335
#       235270
# 
# Disc length: 3291 seconds
# 
# Revision: 7
# Processed by: cddbd v1.5.2PL0 Copyright (c) Steve Scherf et al.
# Submitted via: Grip 3.2.0
# 
DISCID=e80cd912
DTITLE=Marc Bolan and T. Rex - Cosmic Dancer
DYEAR=1991
DGENRE=Rock
TTITLE0=20th Century Boy
TTITLE1=Desdemona
TTITLE2=Child Star
TTITLE3=Oh Baby
TTITLE4=Ride a White Swan
TTITLE5=Hot Love
TTITLE6=Get It On
TTITLE7=Jeepster
TTITLE8=Life's A Gas
TTITLE9=Cosmic Dancer
TTITLE10=The Slider
TTITLE11=Solid Gold, Easy Action
TTITLE12=Telegram Sam
TTITLE13=Metal Guru
TTITLE14=Children of the Revolution
TTITLE15=Truck On (Tyke-Demo)
TTITLE16=I Love to Boogie
TTITLE17=Dance in the Midnight
EXTD=YEAR: 1991
EXTT0=
EXTT1=
EXTT2=
EXTT3=
EXTT4=
EXTT5=
EXTT6=
EXTT7=
EXTT8=
EXTT9=
EXTT10=
EXTT11=
EXTT12=
EXTT13=
EXTT14=
EXTT15=
EXTT16=
EXTT17=
PLAYORDER=
